<svg xmlns="http://www.w3.org/2000/svg" xmlns:xlink="http://www.w3.org/1999/xlink" width="500" zoomAndPan="magnify" viewBox="0 0 375 374.999991" height="500" preserveAspectRatio="xMidYMid meet" version="1.0"><defs><filter x="0%" y="0%" width="100%" height="100%" id="e7f91c010a"><feColorMatrix values="0 0 0 0 1 0 0 0 0 1 0 0 0 0 1 0 0 0 1 0" color-interpolation-filters="sRGB"/></filter><clipPath id="81d8c59b47"><path d="M 187.5 0 C 83.945312 0 0 83.945312 0 187.5 C 0 291.054688 83.945312 375 187.5 375 C 291.054688 375 375 291.054688 375 187.5 C 375 83.945312 291.054688 0 187.5 0 Z M 187.5 0 " clip-rule="nonzero"/></clipPath><clipPath id="b1f304f6b5"><path d="M 0 0 L 374.992188 0 L 374.992188 374.992188 L 0 374.992188 Z M 0 0 " clip-rule="nonzero"/></clipPath><clipPath id="5507b7f05f"><path d="M 187.496094 0 C 83.945312 0 0 83.945312 0 187.496094 C 0 291.046875 83.945312 374.992188 187.496094 374.992188 C 291.046875 374.992188 374.992188 291.046875 374.992188 187.496094 C 374.992188 83.945312 291.046875 0 187.496094 0 Z M 187.496094 0 " clip-rule="nonzero"/></clipPath><clipPath id="a7c95b2b59"><path d="M 23.78125 23.78125 L 351.210938 23.78125 L 351.210938 351.210938 L 23.78125 351.210938 Z M 23.78125 23.78125 " clip-rule="nonzero"/></clipPath><clipPath id="5706da80d9"><path d="M 187.496094 23.78125 C 97.078125 23.78125 23.78125 97.078125 23.78125 187.496094 C 23.78125 277.914062 97.078125 351.210938 187.496094 351.210938 C 277.914062 351.210938 351.210938 277.914062 351.210938 187.496094 C 351.210938 97.078125 277.914062 23.78125 187.496094 23.78125 Z M 187.496094 23.78125 " clip-rule="nonzero"/></clipPath><clipPath id="9b7f641ab5"><path d="M 178 72.5625 L 186 72.5625 L 186 134.683594 L 178 134.683594 Z M 178 72.5625 " clip-rule="nonzero"/></clipPath><clipPath id="67c72295f7"><path d="M 147.890625 93 L 155 93 L 155 114 L 147.890625 114 Z M 147.890625 93 " clip-rule="nonzero"/></clipPath><clipPath id="327f11ef76"><path d="M 149.855469 253.40625 L 216.3125 253.40625 L 216.3125 319.863281 L 149.855469 319.863281 Z M 149.855469 253.40625 " clip-rule="nonzero"/></clipPath><clipPath id="927dd21b81"><path d="M 74.667969 113.542969 L 132.457031 113.542969 L 132.457031 157 L 74.667969 157 Z M 74.667969 113.542969 " clip-rule="nonzero"/></clipPath><clipPath id="c98d82841c"><path d="M 74.667969 148 L 132.457031 148 L 132.457031 192 L 74.667969 192 Z M 74.667969 148 " clip-rule="nonzero"/></clipPath><mask id="b62affc5a2"><g filter="url(#e7f91c010a)"><rect x="-37.5" width="450" fill="#000000" y="-37.499999" height="449.999989" fill-opacity="0.75"/></g></mask><clipPath id="3d24b8733f"><path d="M 0.667969 0.320312 L 58.457031 0.320312 L 58.457031 44 L 0.667969 44 Z M 0.667969 0.320312 " clip-rule="nonzero"/></clipPath><clipPath id="fc019466f3"><rect x="0" width="59" y="0" height="44"/></clipPath><clipPath id="549ae3d33d"><path d="M 74.667969 183 L 132.457031 183 L 132.457031 227 L 74.667969 227 Z M 74.667969 183 " clip-rule="nonzero"/></clipPath><mask id="c422449588"><g filter="url(#e7f91c010a)"><rect x="-37.5" width="450" fill="#000000" y="-37.499999" height="449.999989" fill-opacity="0.5"/></g></mask><clipPath id="9f526665c1"><path d="M 0.667969 0.121094 L 58.457031 0.121094 L 58.457031 43.800781 L 0.667969 43.800781 Z M 0.667969 0.121094 " clip-rule="nonzero"/></clipPath><clipPath id="a9852ef097"><rect x="0" width="59" y="0" height="44"/></clipPath><clipPath id="0f4034da80"><path d="M 74.667969 217 L 132.457031 217 L 132.457031 260.902344 L 74.667969 260.902344 Z M 74.667969 217 " clip-rule="nonzero"/></clipPath><mask id="2fa7954955"><g filter="url(#e7f91c010a)"><rect x="-37.5" width="450" fill="#000000" y="-37.499999" height="449.999989" fill-opacity="0.25"/></g></mask><clipPath id="0c40b0fa7d"><path d="M 0.667969 1 L 58.457031 1 L 58.457031 43.902344 L 0.667969 43.902344 Z M 0.667969 1 " clip-rule="nonzero"/></clipPath><clipPath id="786271e8e7"><rect x="0" width="59" y="0" height="44"/></clipPath><clipPath id="27db61e03d"><path d="M 244.332031 218 L 302.121094 218 L 302.121094 260.902344 L 244.332031 260.902344 Z M 244.332031 218 " clip-rule="nonzero"/></clipPath><clipPath id="20ee74147c"><path d="M 244.332031 182 L 302.121094 182 L 302.121094 227 L 244.332031 227 Z M 244.332031 182 " clip-rule="nonzero"/></clipPath><mask id="77c39eae3c"><g filter="url(#e7f91c010a)"><rect x="-37.5" width="450" fill="#000000" y="-37.499999" height="449.999989" fill-opacity="0.75"/></g></mask><clipPath id="6612f8453b"><path d="M 0.332031 1 L 58.121094 1 L 58.121094 44.558594 L 0.332031 44.558594 Z M 0.332031 1 " clip-rule="nonzero"/></clipPath><clipPath id="96982a89d9"><rect x="0" width="59" y="0" height="45"/></clipPath><clipPath id="60a0b7ae9a"><path d="M 244.332031 148 L 302.121094 148 L 302.121094 192 L 244.332031 192 Z M 244.332031 148 " clip-rule="nonzero"/></clipPath><mask id="d62155034b"><g filter="url(#e7f91c010a)"><rect x="-37.5" width="450" fill="#000000" y="-37.499999" height="449.999989" fill-opacity="0.5"/></g></mask><clipPath id="8361257e10"><path d="M 0.332031 0.078125 L 58.121094 0.078125 L 58.121094 43.761719 L 0.332031 43.761719 Z M 0.332031 0.078125 " clip-rule="nonzero"/></clipPath><clipPath id="d2ad744196"><rect x="0" width="59" y="0" height="44"/></clipPath><clipPath id="4fcf0cf1da"><path d="M 244.332031 114.085938 L 302.121094 114.085938 L 302.121094 157 L 244.332031 157 Z M 244.332031 114.085938 " clip-rule="nonzero"/></clipPath><mask id="0cf98ae8c2"><g filter="url(#e7f91c010a)"><rect x="-37.5" width="450" fill="#000000" y="-37.499999" height="449.999989" fill-opacity="0.25"/></g></mask><clipPath id="d2c0242274"><path d="M 0.332031 0.0859375 L 58.121094 0.0859375 L 58.121094 42.960938 L 0.332031 42.960938 Z M 0.332031 0.0859375 " clip-rule="nonzero"/></clipPath><clipPath id="2b3802a3ed"><rect x="0" width="59" y="0" height="43"/></clipPath><clipPath id="2769366ed3"><path d="M 147.890625 147.890625 L 227.109375 147.890625 L 227.109375 227.109375 L 147.890625 227.109375 Z M 147.890625 147.890625 " clip-rule="nonzero"/></clipPath><clipPath id="3f7503ba57"><path d="M 187.5 147.890625 C 165.625 147.890625 147.890625 165.625 147.890625 187.5 C 147.890625 209.375 165.625 227.109375 187.5 227.109375 C 209.375 227.109375 227.109375 209.375 227.109375 187.5 C 227.109375 165.625 209.375 147.890625 187.5 147.890625 Z M 187.5 147.890625 " clip-rule="nonzero"/></clipPath><clipPath id="ddc0eb8aa1"><path d="M 147.890625 147.890625 L 227.101562 147.890625 L 227.101562 227.101562 L 147.890625 227.101562 Z M 147.890625 147.890625 " clip-rule="nonzero"/></clipPath><clipPath id="73945b2e84"><path d="M 187.496094 147.890625 C 165.621094 147.890625 147.890625 165.621094 147.890625 187.496094 C 147.890625 209.367188 165.621094 227.101562 187.496094 227.101562 C 209.367188 227.101562 227.101562 209.367188 227.101562 187.496094 C 227.101562 165.621094 209.367188 147.890625 187.496094 147.890625 Z M 187.496094 147.890625 " clip-rule="nonzero"/></clipPath><clipPath id="a20f06f10b"><path d="M 147.832031 161.585938 L 227.292969 161.585938 L 227.292969 213.597656 L 147.832031 213.597656 Z M 147.832031 161.585938 " clip-rule="nonzero"/></clipPath></defs><g clip-path="url(#81d8c59b47)"><rect x="-37.5" width="450" fill="#000000" y="-37.499999" height="449.999989" fill-opacity="1"/></g><g clip-path="url(#b1f304f6b5)"><g clip-path="url(#5507b7f05f)"><path stroke-linecap="butt" transform="matrix(1.444708, 0, 0, 1.444708, 0.0000045, -0.000000000000001571)" fill="none" stroke-linejoin="miter" d="M 129.781304 0.000000000000001088 C 58.10538 0.000000000000001088 -0.00000311482 58.105383 -0.00000311482 129.781307 C -0.00000311482 201.457231 58.10538 259.562614 129.781304 259.562614 C 201.457228 259.562614 259.562611 201.457231 259.562611 129.781307 C 259.562611 58.105383 201.457228 0.000000000000001088 129.781304 0.000000000000001088 Z M 129.781304 0.000000000000001088 " stroke="#00ccff" stroke-width="8.306176" stroke-opacity="1" stroke-miterlimit="4"/></g></g><g clip-path="url(#a7c95b2b59)"><g clip-path="url(#5706da80d9)"><path stroke-linecap="butt" transform="matrix(1.444708, 0, 0, 1.444708, 23.781227, 23.781222)" fill="none" stroke-linejoin="miter" d="M 113.320394 0.0000192991 C 50.734753 0.0000192991 0.0000161843 50.734756 0.0000161843 113.320397 C 0.0000161843 175.906038 50.734753 226.640775 113.320394 226.640775 C 175.906035 226.640775 226.640772 175.906038 226.640772 113.320397 C 226.640772 50.734756 175.906035 0.0000192991 113.320394 0.0000192991 Z M 113.320394 0.0000192991 " stroke="#00ccff" stroke-width="8.306176" stroke-opacity="1" stroke-miterlimit="4"/></g></g><g clip-path="url(#9b7f641ab5)"><path fill="#11b1f7" d="M 182.234375 72.566406 C 184.132812 72.566406 185.667969 74.101562 185.667969 76 L 185.667969 130.953125 C 185.667969 132.851562 184.132812 134.386719 182.234375 134.386719 C 180.339844 134.386719 178.800781 132.851562 178.800781 130.953125 L 178.800781 76 C 178.800781 74.101562 180.339844 72.566406 182.234375 72.566406 Z M 182.234375 72.566406 " fill-opacity="1" fill-rule="nonzero"/></g><g clip-path="url(#67c72295f7)"><path fill="#11b1f7" d="M 151.324219 93.171875 C 153.222656 93.171875 154.757812 94.710938 154.757812 96.605469 L 154.757812 110.34375 C 154.757812 112.242188 153.222656 113.78125 151.324219 113.78125 C 149.425781 113.78125 147.890625 112.242188 147.890625 110.34375 L 147.890625 96.605469 C 147.890625 94.710938 149.425781 93.171875 151.324219 93.171875 Z M 151.324219 93.171875 " fill-opacity="1" fill-rule="nonzero"/></g><path fill="#11b1f7" d="M 165.0625 86.304688 C 165.0625 84.40625 163.523438 82.867188 161.628906 82.867188 C 159.730469 82.867188 158.191406 84.40625 158.191406 86.304688 L 158.191406 120.648438 C 158.191406 122.546875 159.730469 124.082031 161.628906 124.082031 C 163.523438 124.082031 165.0625 122.546875 165.0625 120.648438 Z M 165.0625 86.304688 " fill-opacity="1" fill-rule="nonzero"/><path fill="#11b1f7" d="M 171.929688 89.738281 C 173.828125 89.738281 175.367188 91.277344 175.367188 93.171875 L 175.367188 113.78125 C 175.367188 115.675781 173.828125 117.214844 171.929688 117.214844 C 170.035156 117.214844 168.496094 115.675781 168.496094 113.78125 L 168.496094 93.171875 C 168.496094 91.277344 170.035156 89.738281 171.929688 89.738281 Z M 171.929688 89.738281 " fill-opacity="1" fill-rule="nonzero"/><path fill="#11b1f7" d="M 209.710938 96.605469 C 209.710938 94.710938 211.25 93.171875 213.144531 93.171875 C 215.042969 93.171875 216.582031 94.710938 216.582031 96.605469 L 216.582031 110.34375 C 216.582031 112.242188 215.042969 113.78125 213.144531 113.78125 C 211.25 113.78125 209.710938 112.242188 209.710938 110.34375 Z M 209.710938 96.605469 " fill-opacity="1" fill-rule="nonzero"/><path fill="#11b1f7" d="M 202.84375 82.867188 C 204.738281 82.867188 206.277344 84.40625 206.277344 86.304688 L 206.277344 120.648438 C 206.277344 122.546875 204.738281 124.082031 202.84375 124.082031 C 200.945312 124.082031 199.40625 122.546875 199.40625 120.648438 L 199.40625 86.304688 C 199.40625 84.40625 200.945312 82.867188 202.84375 82.867188 Z M 202.84375 82.867188 " fill-opacity="1" fill-rule="nonzero"/><path fill="#11b1f7" d="M 195.972656 93.171875 C 195.972656 91.277344 194.4375 89.738281 192.539062 89.738281 C 190.640625 89.738281 189.105469 91.277344 189.105469 93.171875 L 189.105469 113.78125 C 189.105469 115.675781 190.640625 117.214844 192.539062 117.214844 C 194.4375 117.214844 195.972656 115.675781 195.972656 113.78125 Z M 195.972656 93.171875 " fill-opacity="1" fill-rule="nonzero"/><path fill="#8c52ff" d="M 189.703125 299.167969 L 170.160156 299.167969 C 168.710938 299.167969 167.535156 297.992188 167.535156 296.542969 L 167.535156 277 C 167.535156 275.550781 168.710938 274.375 170.160156 274.375 L 189.703125 274.375 C 191.152344 274.375 192.328125 275.550781 192.328125 277 L 192.328125 296.542969 C 192.328125 297.992188 191.152344 299.167969 189.703125 299.167969 " fill-opacity="1" fill-rule="nonzero"/><path fill="#8c52ff" d="M 202.492188 296.007812 L 195.378906 292.210938 C 194.910156 291.960938 194.617188 291.472656 194.617188 290.941406 L 194.617188 282.601562 C 194.617188 282.070312 194.910156 281.582031 195.378906 281.332031 L 202.492188 277.535156 C 203.449219 277.023438 204.605469 277.71875 204.605469 278.804688 L 204.605469 294.738281 C 204.605469 295.824219 203.449219 296.515625 202.492188 296.007812 " fill-opacity="1" fill-rule="nonzero"/><g clip-path="url(#327f11ef76)"><path fill="#8c52ff" d="M 183.21875 256.257812 C 166.394531 256.257812 152.707031 269.945312 152.707031 286.769531 C 152.707031 303.59375 166.394531 317.28125 183.21875 317.28125 C 200.042969 317.28125 213.730469 303.59375 213.730469 286.769531 C 213.730469 269.945312 200.042969 256.257812 183.21875 256.257812 Z M 183.21875 320.136719 C 178.714844 320.136719 174.347656 319.253906 170.234375 317.511719 C 166.261719 315.832031 162.691406 313.425781 159.628906 310.363281 C 156.566406 307.300781 154.160156 303.730469 152.480469 299.757812 C 150.738281 295.644531 149.855469 291.273438 149.855469 286.769531 C 149.855469 282.269531 150.738281 277.898438 152.480469 273.785156 C 154.160156 269.8125 156.566406 266.242188 159.628906 263.179688 C 162.691406 260.117188 166.261719 257.710938 170.234375 256.03125 C 174.347656 254.289062 178.714844 253.40625 183.21875 253.40625 C 187.722656 253.40625 192.09375 254.289062 196.207031 256.03125 C 200.179688 257.710938 203.746094 260.117188 206.8125 263.179688 C 209.875 266.242188 212.28125 269.8125 213.960938 273.785156 C 215.699219 277.898438 216.582031 282.269531 216.582031 286.769531 C 216.582031 291.273438 215.699219 295.644531 213.960938 299.757812 C 212.28125 303.730469 209.875 307.300781 206.8125 310.363281 C 203.746094 313.425781 200.179688 315.832031 196.207031 317.511719 C 192.09375 319.253906 187.722656 320.136719 183.21875 320.136719 " fill-opacity="1" fill-rule="nonzero"/></g><g clip-path="url(#927dd21b81)"><path fill="#8c52ff" d="M 109.335938 148.292969 L 132.457031 113.644531 L 115.964844 113.644531 L 103.621094 132.097656 L 91.277344 113.644531 L 74.789062 113.644531 L 97.910156 148.292969 L 103.621094 156.871094 Z M 109.335938 148.292969 " fill-opacity="1" fill-rule="nonzero"/></g><g clip-path="url(#c98d82841c)"><g mask="url(#b62affc5a2)"><g transform="matrix(1, 0, 0, 1, 74, 148)"><g clip-path="url(#fc019466f3)"><g clip-path="url(#3d24b8733f)"><path fill="#8c52ff" d="M 35.335938 35.113281 L 58.457031 0.46875 L 41.964844 0.46875 L 29.621094 18.921875 L 17.277344 0.46875 L 0.789062 0.46875 L 23.910156 35.113281 L 29.621094 43.691406 Z M 35.335938 35.113281 " fill-opacity="1" fill-rule="nonzero"/></g></g></g></g></g><g clip-path="url(#549ae3d33d)"><g mask="url(#c422449588)"><g transform="matrix(1, 0, 0, 1, 74, 183)"><g clip-path="url(#a9852ef097)"><g clip-path="url(#9f526665c1)"><path fill="#8c52ff" d="M 35.335938 34.9375 L 58.457031 0.289062 L 41.964844 0.289062 L 29.621094 18.746094 L 17.277344 0.289062 L 0.789062 0.289062 L 23.910156 34.9375 L 29.621094 43.515625 Z M 35.335938 34.9375 " fill-opacity="1" fill-rule="nonzero"/></g></g></g></g></g><g clip-path="url(#0f4034da80)"><g mask="url(#2fa7954955)"><g transform="matrix(1, 0, 0, 1, 74, 217)"><g clip-path="url(#786271e8e7)"><g clip-path="url(#0c40b0fa7d)"><path fill="#8c52ff" d="M 35.335938 35.761719 L 58.457031 1.113281 L 41.964844 1.113281 L 29.621094 19.566406 L 17.277344 1.113281 L 0.789062 1.113281 L 23.910156 35.761719 L 29.621094 44.339844 Z M 35.335938 35.761719 " fill-opacity="1" fill-rule="nonzero"/></g></g></g></g></g><g clip-path="url(#27db61e03d)"><path fill="#11b1f7" d="M 279 226.695312 L 302.121094 261.34375 L 285.632812 261.34375 L 273.289062 242.890625 L 260.945312 261.34375 L 244.453125 261.34375 L 267.574219 226.695312 L 273.289062 218.117188 Z M 279 226.695312 " fill-opacity="1" fill-rule="nonzero"/></g><g clip-path="url(#20ee74147c)"><g mask="url(#77c39eae3c)"><g transform="matrix(1, 0, 0, 1, 244, 182)"><g clip-path="url(#96982a89d9)"><g clip-path="url(#6612f8453b)"><path fill="#11b1f7" d="M 35 9.875 L 58.121094 44.519531 L 41.632812 44.519531 L 29.289062 26.066406 L 16.945312 44.519531 L 0.453125 44.519531 L 23.574219 9.875 L 29.289062 1.296875 Z M 35 9.875 " fill-opacity="1" fill-rule="nonzero"/></g></g></g></g></g><g clip-path="url(#60a0b7ae9a)"><g mask="url(#d62155034b)"><g transform="matrix(1, 0, 0, 1, 244, 148)"><g clip-path="url(#d2ad744196)"><g clip-path="url(#8361257e10)"><path fill="#11b1f7" d="M 35 9.050781 L 58.121094 43.699219 L 41.632812 43.699219 L 29.289062 25.246094 L 16.945312 43.699219 L 0.453125 43.699219 L 23.574219 9.050781 L 29.289062 0.472656 Z M 35 9.050781 " fill-opacity="1" fill-rule="nonzero"/></g></g></g></g></g><g clip-path="url(#4fcf0cf1da)"><g mask="url(#0cf98ae8c2)"><g transform="matrix(1, 0, 0, 1, 244, 114)"><g clip-path="url(#2b3802a3ed)"><g clip-path="url(#d2c0242274)"><path fill="#11b1f7" d="M 35 8.226562 L 58.121094 42.875 L 41.632812 42.875 L 29.289062 24.421875 L 16.945312 42.875 L 0.453125 42.875 L 23.574219 8.226562 L 29.289062 -0.351562 Z M 35 8.226562 " fill-opacity="1" fill-rule="nonzero"/></g></g></g></g></g><g clip-path="url(#2769366ed3)"><g clip-path="url(#3f7503ba57)"><path fill="#8c52ff" d="M 147.890625 147.890625 L 227.109375 147.890625 L 227.109375 227.109375 L 147.890625 227.109375 Z M 147.890625 147.890625 " fill-opacity="1" fill-rule="nonzero"/></g></g><g clip-path="url(#ddc0eb8aa1)"><g clip-path="url(#73945b2e84)"><path stroke-linecap="butt" transform="matrix(1.444708, 0, 0, 1.444708, 147.889492, 147.889488)" fill="none" stroke-linejoin="miter" d="M 27.414952 0.000787087 C 12.273485 0.000787087 0.000783973 12.273488 0.000783973 27.414956 C 0.000783973 42.55372 12.273485 54.829124 27.414952 54.829124 C 42.553717 54.829124 54.829121 42.55372 54.829121 27.414956 C 54.829121 12.273488 42.553717 0.000787087 27.414952 0.000787087 Z M 27.414952 0.000787087 " stroke="#00ccff" stroke-width="4.153088" stroke-opacity="1" stroke-miterlimit="4"/></g></g><g clip-path="url(#a20f06f10b)"><path fill="#ffffff" d="M 147.832031 187.484375 C 150.976562 187.304688 154.121094 187.144531 157.265625 186.988281 C 160.40625 186.835938 163.550781 186.691406 166.695312 186.554688 L 167.875 186.5 L 168.199219 186.488281 C 168.332031 186.484375 168.46875 186.488281 168.601562 186.5 C 168.871094 186.523438 169.140625 186.574219 169.398438 186.652344 C 169.914062 186.804688 170.382812 187.058594 170.789062 187.363281 C 171.199219 187.667969 171.546875 188.023438 171.851562 188.40625 C 172.15625 188.785156 172.410156 189.191406 172.628906 189.609375 C 172.734375 189.820312 172.835938 190.03125 172.925781 190.25 C 173.015625 190.464844 173.097656 190.683594 173.164062 190.90625 C 173.230469 191.128906 173.289062 191.351562 173.332031 191.578125 L 173.347656 191.664062 L 173.382812 191.886719 C 173.398438 191.980469 173.414062 192.078125 173.429688 192.175781 C 173.488281 192.5625 173.539062 192.949219 173.601562 193.335938 C 173.664062 193.722656 173.734375 194.109375 173.804688 194.492188 L 174.015625 195.644531 C 174.15625 196.414062 174.304688 197.179688 174.457031 197.941406 C 174.761719 199.46875 175.089844 200.984375 175.460938 202.480469 C 175.648438 203.226562 175.847656 203.96875 176.0625 204.699219 C 176.28125 205.425781 176.511719 206.148438 176.773438 206.839844 C 177.035156 207.535156 177.324219 208.210938 177.652344 208.816406 C 177.816406 209.121094 177.992188 209.40625 178.175781 209.65625 C 178.359375 209.90625 178.554688 210.121094 178.734375 210.269531 C 178.824219 210.347656 178.910156 210.40625 178.988281 210.445312 C 179.0625 210.484375 179.128906 210.507812 179.1875 210.523438 C 179.25 210.535156 179.304688 210.539062 179.367188 210.535156 C 179.425781 210.53125 179.484375 210.519531 179.550781 210.492188 C 179.613281 210.46875 179.691406 210.429688 179.777344 210.371094 C 179.859375 210.316406 179.953125 210.238281 180.046875 210.152344 C 180.234375 209.96875 180.421875 209.734375 180.601562 209.464844 C 180.78125 209.199219 180.953125 208.902344 181.113281 208.589844 C 181.273438 208.28125 181.421875 207.953125 181.5625 207.617188 C 181.847656 206.945312 182.097656 206.238281 182.328125 205.519531 C 182.789062 204.078125 183.171875 202.585938 183.519531 201.082031 C 183.867188 199.574219 184.175781 198.046875 184.46875 196.515625 C 185.050781 193.449219 185.5625 190.355469 186.078125 187.253906 C 186.597656 184.15625 187.109375 181.042969 187.699219 177.933594 C 187.996094 176.375 188.3125 174.820312 188.671875 173.265625 C 189.03125 171.707031 189.425781 170.152344 189.921875 168.597656 C 190.171875 167.820312 190.449219 167.042969 190.773438 166.265625 C 190.9375 165.878906 191.117188 165.488281 191.316406 165.101562 C 191.515625 164.714844 191.734375 164.324219 191.992188 163.941406 C 192.253906 163.554688 192.550781 163.171875 192.929688 162.804688 C 193.121094 162.621094 193.332031 162.445312 193.570312 162.28125 C 193.8125 162.117188 194.082031 161.96875 194.386719 161.855469 C 194.6875 161.742188 195.015625 161.667969 195.347656 161.644531 C 195.679688 161.621094 196.019531 161.648438 196.34375 161.71875 C 196.667969 161.792969 196.972656 161.910156 197.242188 162.054688 C 197.511719 162.199219 197.75 162.367188 197.964844 162.542969 C 198.386719 162.894531 198.714844 163.277344 198.996094 163.660156 C 199.277344 164.042969 199.511719 164.429688 199.722656 164.816406 C 200.140625 165.589844 200.46875 166.367188 200.761719 167.144531 C 201.054688 167.921875 201.304688 168.699219 201.535156 169.476562 C 201.765625 170.253906 201.972656 171.03125 202.167969 171.8125 C 202.554688 173.367188 202.890625 174.921875 203.203125 176.480469 C 203.515625 178.035156 203.796875 179.589844 204.074219 181.148438 C 204.144531 181.535156 204.226562 181.921875 204.304688 182.308594 C 204.324219 182.40625 204.34375 182.5 204.359375 182.597656 L 204.382812 182.746094 L 204.402344 182.871094 L 204.484375 183.351562 C 204.589844 183.992188 204.789062 184.609375 205.089844 185.140625 C 205.386719 185.667969 205.789062 186.101562 206.242188 186.332031 C 206.355469 186.390625 206.472656 186.4375 206.59375 186.46875 C 206.652344 186.484375 206.714844 186.496094 206.777344 186.507812 L 206.824219 186.515625 C 206.84375 186.515625 206.871094 186.515625 206.894531 186.515625 L 207.042969 186.523438 L 208.222656 186.574219 L 212.9375 186.785156 L 217.652344 187.003906 C 220.796875 187.152344 223.941406 187.308594 227.082031 187.484375 C 223.941406 187.65625 220.796875 187.8125 217.652344 187.964844 L 212.9375 188.183594 L 208.222656 188.390625 L 207.042969 188.441406 L 206.71875 188.457031 C 206.582031 188.460938 206.449219 188.457031 206.316406 188.445312 C 206.046875 188.425781 205.78125 188.371094 205.523438 188.296875 C 205.011719 188.144531 204.542969 187.890625 204.136719 187.585938 C 203.730469 187.28125 203.382812 186.929688 203.078125 186.550781 C 202.476562 185.789062 202.054688 184.9375 201.765625 184.058594 C 201.695312 183.835938 201.636719 183.613281 201.589844 183.386719 L 201.574219 183.304688 L 201.558594 183.226562 L 201.535156 183.082031 C 201.519531 182.984375 201.503906 182.886719 201.488281 182.789062 C 201.433594 182.402344 201.378906 182.015625 201.316406 181.628906 C 201.046875 180.085938 200.765625 178.550781 200.460938 177.023438 C 200.15625 175.496094 199.828125 173.980469 199.453125 172.484375 C 199.265625 171.738281 199.070312 170.996094 198.851562 170.265625 C 198.636719 169.539062 198.402344 168.820312 198.140625 168.125 C 197.882812 167.429688 197.59375 166.753906 197.261719 166.148438 C 197.097656 165.847656 196.921875 165.558594 196.738281 165.308594 C 196.554688 165.058594 196.363281 164.84375 196.179688 164.695312 C 196.089844 164.621094 196.003906 164.5625 195.929688 164.519531 C 195.851562 164.480469 195.785156 164.457031 195.726562 164.445312 C 195.667969 164.429688 195.609375 164.425781 195.550781 164.429688 C 195.488281 164.433594 195.433594 164.445312 195.367188 164.472656 C 195.300781 164.496094 195.222656 164.535156 195.140625 164.59375 C 195.054688 164.652344 194.964844 164.726562 194.871094 164.816406 C 194.683594 164.996094 194.492188 165.234375 194.3125 165.5 C 194.132812 165.765625 193.964844 166.0625 193.804688 166.375 C 193.644531 166.683594 193.492188 167.011719 193.351562 167.347656 C 193.070312 168.019531 192.816406 168.726562 192.585938 169.445312 C 192.125 170.886719 191.742188 172.378906 191.398438 173.886719 C 191.050781 175.394531 190.738281 176.917969 190.449219 178.449219 C 189.867188 181.515625 189.355469 184.609375 188.835938 187.710938 C 188.320312 190.8125 187.804688 193.921875 187.214844 197.03125 C 186.917969 198.589844 186.601562 200.144531 186.246094 201.703125 C 185.886719 203.257812 185.488281 204.8125 184.992188 206.371094 C 184.742188 207.148438 184.46875 207.921875 184.140625 208.699219 C 183.976562 209.085938 183.800781 209.476562 183.601562 209.863281 C 183.402344 210.25 183.183594 210.640625 182.921875 211.023438 C 182.664062 211.410156 182.367188 211.792969 181.988281 212.160156 C 181.796875 212.34375 181.585938 212.519531 181.34375 212.683594 C 181.105469 212.847656 180.832031 212.996094 180.53125 213.109375 C 180.230469 213.222656 179.902344 213.296875 179.566406 213.320312 C 179.234375 213.34375 178.898438 213.320312 178.574219 213.246094 C 178.25 213.175781 177.945312 213.054688 177.675781 212.910156 C 177.402344 212.765625 177.164062 212.597656 176.953125 212.421875 C 176.527344 212.070312 176.199219 211.6875 175.917969 211.304688 C 175.640625 210.921875 175.40625 210.535156 175.195312 210.148438 C 174.773438 209.375 174.445312 208.597656 174.152344 207.820312 C 173.863281 207.042969 173.609375 206.265625 173.378906 205.488281 C 173.148438 204.710938 172.941406 203.933594 172.746094 203.15625 C 171.972656 200.042969 171.398438 196.925781 170.839844 193.820312 C 170.765625 193.429688 170.683594 193.046875 170.605469 192.65625 C 170.589844 192.558594 170.570312 192.464844 170.550781 192.367188 L 170.503906 192.09375 C 170.476562 191.933594 170.449219 191.773438 170.417969 191.613281 C 170.386719 191.457031 170.355469 191.296875 170.316406 191.140625 C 170.277344 190.984375 170.234375 190.832031 170.183594 190.683594 C 170.082031 190.382812 169.957031 190.097656 169.808594 189.835938 C 169.515625 189.308594 169.113281 188.878906 168.667969 188.652344 C 168.554688 188.59375 168.441406 188.546875 168.320312 188.515625 C 168.261719 188.5 168.199219 188.488281 168.140625 188.476562 L 168.09375 188.46875 C 168.070312 188.46875 168.042969 188.46875 168.019531 188.46875 L 167.875 188.460938 L 166.695312 188.410156 C 163.550781 188.273438 160.40625 188.128906 157.261719 187.972656 C 154.121094 187.824219 150.976562 187.664062 147.832031 187.484375 Z M 147.832031 187.484375 " fill-opacity="1" fill-rule="nonzero"/></g></svg>